<svg width="358" height="348" viewBox="0 0 358 348" fill="none" xmlns="http://www.w3.org/2000/svg">
<rect width="358" height="348" rx="174" fill="white"/>
<rect width="358" height="348" rx="174" fill="url(#paint0_linear_4_40)"/>
<g filter="url(#filter0_d_4_40)">
<path d="M94.84 129.096H101.56V164.904C102.648 161.96 104.664 159.176 107.608 156.552C110.552 153.928 113.88 152.616 117.592 152.616C130.584 152.616 137.08 160.232 137.08 175.464C137.08 192.744 128.696 201.384 111.928 201.384C107 201.384 101.304 200.584 94.84 198.984V129.096ZM117.496 153.384C113.528 153.384 109.944 155.112 106.744 158.568C103.544 161.96 101.816 165.032 101.56 167.784V198.408C105.464 199.88 108.888 200.616 111.832 200.616C124.184 200.616 130.36 192.2 130.36 175.368C130.36 160.712 126.072 153.384 117.496 153.384ZM163.627 201.384C156.907 201.384 151.435 199.464 147.211 195.624C142.987 191.784 140.875 185.864 140.875 177.864C140.875 169.864 143.051 163.656 147.403 159.24C151.819 154.824 157.387 152.616 164.107 152.616C170.891 152.616 176.395 154.536 180.619 158.376C184.843 162.216 186.955 168.136 186.955 176.136C186.955 184.136 184.747 190.344 180.331 194.76C175.979 199.176 170.411 201.384 163.627 201.384ZM164.299 153.384C159.435 153.384 155.403 155.56 152.203 159.912C149.003 164.2 147.403 170.216 147.403 177.96C147.403 185.64 148.875 191.336 151.819 195.048C154.763 198.76 158.667 200.616 163.531 200.616C168.395 200.616 172.427 198.472 175.627 194.184C178.827 189.832 180.427 183.816 180.427 176.136C180.427 168.392 178.955 162.664 176.011 158.952C173.067 155.24 169.163 153.384 164.299 153.384ZM207.215 157.128V155.112C204.335 156.264 201.711 158.6 199.343 162.12C196.975 165.576 195.727 168.84 195.599 171.912V201H188.879V153H195.599V168.264C196.623 164.552 198.575 161.064 201.455 157.8C204.335 154.472 207.599 152.744 211.247 152.616H211.631C212.911 152.616 213.967 153.064 214.799 153.96C215.695 154.792 216.143 155.848 216.143 157.128C216.143 158.408 215.695 159.464 214.799 160.296C213.967 161.128 212.911 161.544 211.631 161.544C210.351 161.544 209.295 161.128 208.463 160.296C207.631 159.464 207.215 158.408 207.215 157.128ZM259.379 201C256.755 201 254.739 200.424 253.331 199.272C251.987 198.12 251.283 196.968 251.219 195.816L251.123 194.184V164.04C251.123 158.984 249.811 155.752 247.187 154.344C245.843 153.704 244.179 153.384 242.195 153.384C238.099 153.384 234.419 155.016 231.155 158.28C227.891 161.48 226.259 164.36 226.259 166.92V201H219.539V153H226.259V163.944C227.347 161.192 229.363 158.632 232.307 156.264C235.251 153.832 238.483 152.616 242.003 152.616C245.523 152.616 248.371 152.968 250.547 153.672C252.787 154.312 254.419 155.24 255.443 156.456C257.043 158.44 257.843 161 257.843 164.136V194.184C257.843 196.04 258.195 197.48 258.899 198.504C259.667 199.464 260.435 199.976 261.203 200.04L262.259 200.232H265.235V201H259.379Z" fill="white"/>
<path d="M122.68 123.384V123H123.688V118.2H127.048V123H134.392V123.384H127.048V140.856C127.048 142.936 127.272 144.44 127.72 145.368C128.2 146.296 129.176 146.76 130.648 146.76C132.152 146.76 133.672 146.456 135.208 145.848L135.352 146.232C133.752 146.84 131.912 147.144 129.832 147.144C127.784 147.144 126.248 146.728 125.224 145.896C124.2 145.032 123.688 143.336 123.688 140.808V123.384H122.68ZM155.738 147C154.426 147 153.418 146.712 152.714 146.136C152.042 145.56 151.69 144.984 151.658 144.408L151.61 143.592V128.52C151.61 125.992 150.938 124.376 149.594 123.672C148.954 123.352 148.138 123.192 147.146 123.192C145.162 123.192 143.37 124.008 141.77 125.64C140.202 127.24 139.418 128.68 139.418 129.96V147H136.058V111.048H139.418V128.472C139.93 127.096 140.906 125.816 142.346 124.632C143.786 123.416 145.402 122.808 147.194 122.808C150.298 122.808 152.362 123.352 153.386 124.44C154.442 125.496 154.97 126.872 154.97 128.568V143.592C154.97 144.52 155.146 145.24 155.498 145.752C155.882 146.232 156.25 146.488 156.602 146.52L157.178 146.616H158.666V147H155.738ZM162.656 135.288C162.656 139.256 163.345 142.168 164.721 144.024C166.129 145.88 167.969 146.808 170.24 146.808C173.441 146.808 176.289 146.328 178.785 145.368L178.929 145.704C176.369 146.696 173.473 147.192 170.24 147.192C167.041 147.192 164.433 146.232 162.417 144.312C160.401 142.392 159.392 139.432 159.392 135.432C159.392 131.432 160.449 128.328 162.561 126.12C164.673 123.912 167.361 122.808 170.625 122.808C173.249 122.808 175.457 123.592 177.249 125.16C179.041 126.728 179.937 129.048 179.937 132.12C179.937 132.28 179.937 132.44 179.937 132.6H162.801C162.705 133.464 162.656 134.36 162.656 135.288ZM176.673 132.216C176.641 129.144 176.049 126.872 174.897 125.4C173.745 123.928 172.257 123.192 170.433 123.192C168.609 123.192 166.977 123.992 165.537 125.592C164.129 127.192 163.233 129.4 162.849 132.216H176.673Z" fill="white"/>
</g>
<path d="M181.784 208.808C181.805 208.787 181.848 208.776 181.912 208.776C181.976 208.776 182.019 208.808 182.04 208.872C182.061 208.936 182.04 208.989 181.976 209.032C180.504 210.291 179.768 212.467 179.768 215.56V216.616L179.8 225.224C179.8 227.123 179.523 228.659 178.968 229.832C178.413 231.027 177.72 231.869 176.888 232.36C176.077 232.872 175.235 233.128 174.36 233.128C174.211 233.128 174.136 233.075 174.136 232.968C174.136 232.883 174.2 232.84 174.328 232.84C175.843 232.84 176.909 232.317 177.528 231.272C178.168 230.248 178.467 228.883 178.424 227.176V215.304C178.424 212.851 179.181 210.952 180.696 209.608L180.856 209.48C179.683 210.056 178.744 210.653 178.04 211.272C177.357 211.891 176.685 212.595 176.024 213.384C176.003 213.448 175.949 213.48 175.864 213.48C175.8 213.48 175.757 213.448 175.736 213.384C175.715 213.32 175.736 213.256 175.8 213.192C176.589 212.253 177.443 211.432 178.36 210.728C179.277 210.003 180.419 209.363 181.784 208.808ZM179.544 205.672C179.224 205.672 178.947 205.565 178.712 205.352C178.499 205.117 178.392 204.84 178.392 204.52C178.392 204.2 178.499 203.933 178.712 203.72C178.947 203.485 179.224 203.368 179.544 203.368C179.864 203.368 180.131 203.475 180.344 203.688C180.579 203.901 180.696 204.179 180.696 204.52C180.696 204.84 180.589 205.117 180.376 205.352C180.163 205.565 179.885 205.672 179.544 205.672ZM199.002 217.64C199.023 217.555 199.066 217.512 199.13 217.512C199.172 217.512 199.204 217.533 199.226 217.576C199.268 217.619 199.279 217.672 199.258 217.736C198.404 220.296 197.242 222.195 195.77 223.432C194.298 224.669 192.452 225.288 190.234 225.288C188.719 225.288 187.386 224.936 186.234 224.232C185.082 223.507 184.186 222.547 183.546 221.352C182.927 220.136 182.618 218.824 182.618 217.416C182.618 216.008 182.959 214.632 183.642 213.288C184.346 211.944 185.338 210.845 186.618 209.992C187.898 209.139 189.359 208.712 191.002 208.712C192.602 208.712 193.999 209.011 195.194 209.608C196.388 210.205 196.986 211.027 196.986 212.072C196.986 212.904 196.698 213.565 196.122 214.056C195.546 214.547 194.842 214.909 194.01 215.144C193.199 215.357 192.111 215.581 190.746 215.816C189.764 215.987 189.039 216.125 188.57 216.232C187.247 216.509 186.244 216.904 185.562 217.416C184.879 217.907 184.591 218.643 184.698 219.624C185.21 220.989 186.01 222.099 187.098 222.952C188.207 223.784 189.551 224.2 191.13 224.2C193.028 224.2 194.628 223.677 195.93 222.632C197.231 221.587 198.255 219.923 199.002 217.64ZM191.002 209C189.615 209 188.399 209.331 187.354 209.992C186.308 210.653 185.508 211.549 184.954 212.68C184.399 213.789 184.122 214.995 184.122 216.296C184.122 217.171 184.228 217.992 184.442 218.76C184.548 217.992 184.964 217.395 185.69 216.968C186.415 216.52 187.364 216.179 188.538 215.944C188.751 215.88 189.146 215.805 189.722 215.72C190.916 215.507 191.876 215.283 192.602 215.048C193.348 214.813 193.967 214.472 194.458 214.024C194.97 213.555 195.226 212.925 195.226 212.136C195.226 211.24 194.852 210.493 194.106 209.896C193.38 209.299 192.346 209 191.002 209ZM227.536 208.904C227.642 208.904 227.696 208.947 227.696 209.032C227.696 209.096 227.642 209.128 227.536 209.128C225.914 209.128 224.506 209.149 223.312 209.192C222.138 209.235 221.488 209.363 221.36 209.576C221.296 209.661 221.296 209.757 221.36 209.864C221.445 209.949 221.584 210.077 221.776 210.248C222.288 210.696 222.704 211.187 223.024 211.72C223.344 212.253 223.504 212.968 223.504 213.864C223.504 215.229 223.056 216.712 222.16 218.312C221.285 219.891 220.026 221.843 218.384 224.168L217.616 225.32H217.392L211.568 210.6H211.376C211.44 210.792 211.546 211.059 211.696 211.4C211.845 211.72 211.962 212.04 212.048 212.36C212.154 212.68 212.218 213.021 212.24 213.384C212.325 215.091 211.962 216.904 211.152 218.824C210.362 220.723 209.328 222.547 208.048 224.296L207.248 225.32H206.992L202.064 213.288C201.594 212.179 201.189 211.347 200.848 210.792C200.528 210.216 200.165 209.8 199.76 209.544C199.354 209.267 198.842 209.128 198.224 209.128C198.138 209.128 198.096 209.096 198.096 209.032C198.096 208.947 198.138 208.904 198.224 208.904C198.842 208.904 199.333 208.925 199.696 208.968C200.08 208.989 200.378 209 200.592 209H201.52C201.904 209 202.202 208.989 202.416 208.968C203.056 208.925 203.888 208.904 204.912 208.904C205.018 208.904 205.072 208.947 205.072 209.032C205.072 209.096 205.018 209.128 204.912 209.128C204.101 209.128 203.525 209.235 203.184 209.448C202.842 209.661 202.672 210.013 202.672 210.504C202.672 211.059 202.938 211.987 203.472 213.288L207.888 223.912C208.89 222.653 209.818 221.117 210.672 219.304C211.525 217.469 211.952 215.635 211.952 213.8C211.952 213.352 211.898 212.936 211.792 212.552C211.685 212.147 211.504 211.635 211.248 211.016C210.949 210.312 210.576 209.821 210.128 209.544C209.701 209.267 209.146 209.128 208.464 209.128C208.378 209.128 208.336 209.096 208.336 209.032C208.336 208.947 208.378 208.904 208.464 208.904L210.032 208.936C210.586 208.979 211.162 209 211.76 209H215.152H220.176L223.184 208.968C225.232 208.925 226.682 208.904 227.536 208.904ZM223.216 213.8C223.216 211.901 222.48 210.664 221.008 210.088C219.557 209.512 218.224 209.224 217.008 209.224H215.152C214.426 209.224 213.914 209.309 213.616 209.48C213.317 209.629 213.168 209.896 213.168 210.28C213.168 210.579 213.232 210.941 213.36 211.368C213.509 211.795 213.754 212.445 214.096 213.32L218.256 223.848C219.642 221.949 220.816 220.147 221.776 218.44C222.736 216.712 223.216 215.165 223.216 213.8ZM241.535 217.64C241.557 217.555 241.599 217.512 241.663 217.512C241.706 217.512 241.738 217.533 241.759 217.576C241.802 217.619 241.813 217.672 241.791 217.736C240.938 220.296 239.775 222.195 238.303 223.432C236.831 224.669 234.986 225.288 232.767 225.288C231.253 225.288 229.919 224.936 228.767 224.232C227.615 223.507 226.719 222.547 226.079 221.352C225.461 220.136 225.151 218.824 225.151 217.416C225.151 216.008 225.493 214.632 226.175 213.288C226.879 211.944 227.871 210.845 229.151 209.992C230.431 209.139 231.893 208.712 233.535 208.712C235.135 208.712 236.533 209.011 237.727 209.608C238.922 210.205 239.519 211.027 239.519 212.072C239.519 212.904 239.231 213.565 238.655 214.056C238.079 214.547 237.375 214.909 236.543 215.144C235.733 215.357 234.645 215.581 233.279 215.816C232.298 215.987 231.573 216.125 231.103 216.232C229.781 216.509 228.778 216.904 228.095 217.416C227.413 217.907 227.125 218.643 227.231 219.624C227.743 220.989 228.543 222.099 229.631 222.952C230.741 223.784 232.085 224.2 233.663 224.2C235.562 224.2 237.162 223.677 238.463 222.632C239.765 221.587 240.789 219.923 241.535 217.64ZM233.535 209C232.149 209 230.933 209.331 229.887 209.992C228.842 210.653 228.042 211.549 227.487 212.68C226.933 213.789 226.655 214.995 226.655 216.296C226.655 217.171 226.762 217.992 226.975 218.76C227.082 217.992 227.498 217.395 228.223 216.968C228.949 216.52 229.898 216.179 231.071 215.944C231.285 215.88 231.679 215.805 232.255 215.72C233.45 215.507 234.41 215.283 235.135 215.048C235.882 214.813 236.501 214.472 236.991 214.024C237.503 213.555 237.759 212.925 237.759 212.136C237.759 211.24 237.386 210.493 236.639 209.896C235.914 209.299 234.879 209 233.535 209ZM244.181 225C243.861 225 243.616 225.011 243.445 225.032C242.933 225.075 242.251 225.096 241.397 225.096C241.312 225.096 241.269 225.064 241.269 225C241.269 224.915 241.312 224.872 241.397 224.872C242.208 224.872 242.795 224.776 243.157 224.584C243.52 224.392 243.755 224.093 243.861 223.688C243.968 223.261 244.021 222.589 244.021 221.672V205.192C244.021 204.488 243.904 203.965 243.669 203.624C243.456 203.283 243.061 203.112 242.485 203.112C242.165 203.112 241.835 203.155 241.493 203.24C241.451 203.261 241.419 203.251 241.397 203.208C241.397 203.165 241.419 203.133 241.461 203.112C242.016 202.899 242.667 202.6 243.413 202.216C244.181 201.811 244.768 201.469 245.173 201.192C245.216 201.149 245.259 201.139 245.301 201.16C245.344 201.181 245.365 201.224 245.365 201.288V221.672C245.365 222.589 245.419 223.261 245.525 223.688C245.632 224.093 245.867 224.392 246.229 224.584C246.592 224.776 247.179 224.872 247.989 224.872C248.096 224.872 248.149 224.915 248.149 225C248.149 225.064 248.096 225.096 247.989 225.096C247.136 225.096 246.453 225.075 245.941 225.032C245.771 225.011 245.525 225 245.205 225H244.181ZM257.524 216.52C260.318 217.629 261.716 219.176 261.716 221.16C261.716 221.992 261.417 222.728 260.82 223.368C260.244 223.987 259.497 224.467 258.58 224.808C257.662 225.128 256.724 225.288 255.764 225.288C253.908 225.288 252.382 224.989 251.188 224.392C249.993 223.795 249.182 223.059 248.756 222.184C249.374 221.523 249.844 220.915 250.164 220.36C250.505 219.805 250.953 218.941 251.508 217.768C251.572 217.683 251.625 217.64 251.668 217.64C251.71 217.64 251.742 217.672 251.764 217.736C251.785 217.779 251.785 217.832 251.764 217.896C251.124 219.24 250.644 220.157 250.324 220.648C250.558 221.971 251.092 223.027 251.924 223.816C252.756 224.605 254.014 225 255.7 225C256.958 225 258.046 224.723 258.964 224.168C259.902 223.613 260.372 222.781 260.372 221.672C260.372 220.776 260.116 220.061 259.604 219.528C259.113 218.973 258.398 218.461 257.46 217.992C257.033 217.779 256.244 217.469 255.092 217.064L253.684 216.584C252.489 216.115 251.572 215.571 250.932 214.952C250.313 214.312 250.004 213.48 250.004 212.456C250.004 211.667 250.281 210.995 250.836 210.44C251.412 209.864 252.116 209.427 252.948 209.128C253.801 208.829 254.612 208.68 255.38 208.68C256.766 208.68 258.046 208.968 259.22 209.544C260.414 210.12 261.161 210.803 261.46 211.592C260.905 212.125 260.404 212.765 259.956 213.512C259.508 214.259 259.124 215.005 258.804 215.752L258.676 215.816C258.633 215.816 258.59 215.795 258.548 215.752C258.526 215.688 258.537 215.624 258.58 215.56C258.921 214.771 259.316 214.024 259.764 213.32L259.796 212.936C259.796 212.253 259.604 211.613 259.22 211.016C258.836 210.397 258.302 209.907 257.62 209.544C256.937 209.181 256.18 209 255.348 209C254.238 209 253.268 209.299 252.436 209.896C251.604 210.472 251.188 211.187 251.188 212.04C251.188 213.469 252.116 214.536 253.972 215.24C254.292 215.368 254.59 215.485 254.868 215.592C255.166 215.677 255.444 215.773 255.7 215.88C256.34 216.072 256.948 216.285 257.524 216.52Z" fill="white"/>
<g filter="url(#filter1_d_4_40)">
<path d="M94.84 129.096H101.56V164.904C102.648 161.96 104.664 159.176 107.608 156.552C110.552 153.928 113.88 152.616 117.592 152.616C130.584 152.616 137.08 160.232 137.08 175.464C137.08 192.744 128.696 201.384 111.928 201.384C107 201.384 101.304 200.584 94.84 198.984V129.096ZM117.496 153.384C113.528 153.384 109.944 155.112 106.744 158.568C103.544 161.96 101.816 165.032 101.56 167.784V198.408C105.464 199.88 108.888 200.616 111.832 200.616C124.184 200.616 130.36 192.2 130.36 175.368C130.36 160.712 126.072 153.384 117.496 153.384ZM163.627 201.384C156.907 201.384 151.435 199.464 147.211 195.624C142.987 191.784 140.875 185.864 140.875 177.864C140.875 169.864 143.051 163.656 147.403 159.24C151.819 154.824 157.387 152.616 164.107 152.616C170.891 152.616 176.395 154.536 180.619 158.376C184.843 162.216 186.955 168.136 186.955 176.136C186.955 184.136 184.747 190.344 180.331 194.76C175.979 199.176 170.411 201.384 163.627 201.384ZM164.299 153.384C159.435 153.384 155.403 155.56 152.203 159.912C149.003 164.2 147.403 170.216 147.403 177.96C147.403 185.64 148.875 191.336 151.819 195.048C154.763 198.76 158.667 200.616 163.531 200.616C168.395 200.616 172.427 198.472 175.627 194.184C178.827 189.832 180.427 183.816 180.427 176.136C180.427 168.392 178.955 162.664 176.011 158.952C173.067 155.24 169.163 153.384 164.299 153.384ZM207.215 157.128V155.112C204.335 156.264 201.711 158.6 199.343 162.12C196.975 165.576 195.727 168.84 195.599 171.912V201H188.879V153H195.599V168.264C196.623 164.552 198.575 161.064 201.455 157.8C204.335 154.472 207.599 152.744 211.247 152.616H211.631C212.911 152.616 213.967 153.064 214.799 153.96C215.695 154.792 216.143 155.848 216.143 157.128C216.143 158.408 215.695 159.464 214.799 160.296C213.967 161.128 212.911 161.544 211.631 161.544C210.351 161.544 209.295 161.128 208.463 160.296C207.631 159.464 207.215 158.408 207.215 157.128ZM259.379 201C256.755 201 254.739 200.424 253.331 199.272C251.987 198.12 251.283 196.968 251.219 195.816L251.123 194.184V164.04C251.123 158.984 249.811 155.752 247.187 154.344C245.843 153.704 244.179 153.384 242.195 153.384C238.099 153.384 234.419 155.016 231.155 158.28C227.891 161.48 226.259 164.36 226.259 166.92V201H219.539V153H226.259V163.944C227.347 161.192 229.363 158.632 232.307 156.264C235.251 153.832 238.483 152.616 242.003 152.616C245.523 152.616 248.371 152.968 250.547 153.672C252.787 154.312 254.419 155.24 255.443 156.456C257.043 158.44 257.843 161 257.843 164.136V194.184C257.843 196.04 258.195 197.48 258.899 198.504C259.667 199.464 260.435 199.976 261.203 200.04L262.259 200.232H265.235V201H259.379Z" fill="white"/>
<path d="M122.68 123.384V123H123.688V118.2H127.048V123H134.392V123.384H127.048V140.856C127.048 142.936 127.272 144.44 127.72 145.368C128.2 146.296 129.176 146.76 130.648 146.76C132.152 146.76 133.672 146.456 135.208 145.848L135.352 146.232C133.752 146.84 131.912 147.144 129.832 147.144C127.784 147.144 126.248 146.728 125.224 145.896C124.2 145.032 123.688 143.336 123.688 140.808V123.384H122.68ZM155.738 147C154.426 147 153.418 146.712 152.714 146.136C152.042 145.56 151.69 144.984 151.658 144.408L151.61 143.592V128.52C151.61 125.992 150.938 124.376 149.594 123.672C148.954 123.352 148.138 123.192 147.146 123.192C145.162 123.192 143.37 124.008 141.77 125.64C140.202 127.24 139.418 128.68 139.418 129.96V147H136.058V111.048H139.418V128.472C139.93 127.096 140.906 125.816 142.346 124.632C143.786 123.416 145.402 122.808 147.194 122.808C150.298 122.808 152.362 123.352 153.386 124.44C154.442 125.496 154.97 126.872 154.97 128.568V143.592C154.97 144.52 155.146 145.24 155.498 145.752C155.882 146.232 156.25 146.488 156.602 146.52L157.178 146.616H158.666V147H155.738ZM162.656 135.288C162.656 139.256 163.345 142.168 164.721 144.024C166.129 145.88 167.969 146.808 170.24 146.808C173.441 146.808 176.289 146.328 178.785 145.368L178.929 145.704C176.369 146.696 173.473 147.192 170.24 147.192C167.041 147.192 164.433 146.232 162.417 144.312C160.401 142.392 159.392 139.432 159.392 135.432C159.392 131.432 160.449 128.328 162.561 126.12C164.673 123.912 167.361 122.808 170.625 122.808C173.249 122.808 175.457 123.592 177.249 125.16C179.041 126.728 179.937 129.048 179.937 132.12C179.937 132.28 179.937 132.44 179.937 132.6H162.801C162.705 133.464 162.656 134.36 162.656 135.288ZM176.673 132.216C176.641 129.144 176.049 126.872 174.897 125.4C173.745 123.928 172.257 123.192 170.433 123.192C168.609 123.192 166.977 123.992 165.537 125.592C164.129 127.192 163.233 129.4 162.849 132.216H176.673Z" fill="white"/>
</g>
<g filter="url(#filter2_d_4_40)">
<path d="M181.784 208.808C181.805 208.787 181.848 208.776 181.912 208.776C181.976 208.776 182.019 208.808 182.04 208.872C182.061 208.936 182.04 208.989 181.976 209.032C180.504 210.291 179.768 212.467 179.768 215.56V216.616L179.8 225.224C179.8 227.123 179.523 228.659 178.968 229.832C178.413 231.027 177.72 231.869 176.888 232.36C176.077 232.872 175.235 233.128 174.36 233.128C174.211 233.128 174.136 233.075 174.136 232.968C174.136 232.883 174.2 232.84 174.328 232.84C175.843 232.84 176.909 232.317 177.528 231.272C178.168 230.248 178.467 228.883 178.424 227.176V215.304C178.424 212.851 179.181 210.952 180.696 209.608L180.856 209.48C179.683 210.056 178.744 210.653 178.04 211.272C177.357 211.891 176.685 212.595 176.024 213.384C176.003 213.448 175.949 213.48 175.864 213.48C175.8 213.48 175.757 213.448 175.736 213.384C175.715 213.32 175.736 213.256 175.8 213.192C176.589 212.253 177.443 211.432 178.36 210.728C179.277 210.003 180.419 209.363 181.784 208.808ZM179.544 205.672C179.224 205.672 178.947 205.565 178.712 205.352C178.499 205.117 178.392 204.84 178.392 204.52C178.392 204.2 178.499 203.933 178.712 203.72C178.947 203.485 179.224 203.368 179.544 203.368C179.864 203.368 180.131 203.475 180.344 203.688C180.579 203.901 180.696 204.179 180.696 204.52C180.696 204.84 180.589 205.117 180.376 205.352C180.163 205.565 179.885 205.672 179.544 205.672ZM199.002 217.64C199.023 217.555 199.066 217.512 199.13 217.512C199.172 217.512 199.204 217.533 199.226 217.576C199.268 217.619 199.279 217.672 199.258 217.736C198.404 220.296 197.242 222.195 195.77 223.432C194.298 224.669 192.452 225.288 190.234 225.288C188.719 225.288 187.386 224.936 186.234 224.232C185.082 223.507 184.186 222.547 183.546 221.352C182.927 220.136 182.618 218.824 182.618 217.416C182.618 216.008 182.959 214.632 183.642 213.288C184.346 211.944 185.338 210.845 186.618 209.992C187.898 209.139 189.359 208.712 191.002 208.712C192.602 208.712 193.999 209.011 195.194 209.608C196.388 210.205 196.986 211.027 196.986 212.072C196.986 212.904 196.698 213.565 196.122 214.056C195.546 214.547 194.842 214.909 194.01 215.144C193.199 215.357 192.111 215.581 190.746 215.816C189.764 215.987 189.039 216.125 188.57 216.232C187.247 216.509 186.244 216.904 185.562 217.416C184.879 217.907 184.591 218.643 184.698 219.624C185.21 220.989 186.01 222.099 187.098 222.952C188.207 223.784 189.551 224.2 191.13 224.2C193.028 224.2 194.628 223.677 195.93 222.632C197.231 221.587 198.255 219.923 199.002 217.64ZM191.002 209C189.615 209 188.399 209.331 187.354 209.992C186.308 210.653 185.508 211.549 184.954 212.68C184.399 213.789 184.122 214.995 184.122 216.296C184.122 217.171 184.228 217.992 184.442 218.76C184.548 217.992 184.964 217.395 185.69 216.968C186.415 216.52 187.364 216.179 188.538 215.944C188.751 215.88 189.146 215.805 189.722 215.72C190.916 215.507 191.876 215.283 192.602 215.048C193.348 214.813 193.967 214.472 194.458 214.024C194.97 213.555 195.226 212.925 195.226 212.136C195.226 211.24 194.852 210.493 194.106 209.896C193.38 209.299 192.346 209 191.002 209ZM227.536 208.904C227.642 208.904 227.696 208.947 227.696 209.032C227.696 209.096 227.642 209.128 227.536 209.128C225.914 209.128 224.506 209.149 223.312 209.192C222.138 209.235 221.488 209.363 221.36 209.576C221.296 209.661 221.296 209.757 221.36 209.864C221.445 209.949 221.584 210.077 221.776 210.248C222.288 210.696 222.704 211.187 223.024 211.72C223.344 212.253 223.504 212.968 223.504 213.864C223.504 215.229 223.056 216.712 222.16 218.312C221.285 219.891 220.026 221.843 218.384 224.168L217.616 225.32H217.392L211.568 210.6H211.376C211.44 210.792 211.546 211.059 211.696 211.4C211.845 211.72 211.962 212.04 212.048 212.36C212.154 212.68 212.218 213.021 212.24 213.384C212.325 215.091 211.962 216.904 211.152 218.824C210.362 220.723 209.328 222.547 208.048 224.296L207.248 225.32H206.992L202.064 213.288C201.594 212.179 201.189 211.347 200.848 210.792C200.528 210.216 200.165 209.8 199.76 209.544C199.354 209.267 198.842 209.128 198.224 209.128C198.138 209.128 198.096 209.096 198.096 209.032C198.096 208.947 198.138 208.904 198.224 208.904C198.842 208.904 199.333 208.925 199.696 208.968C200.08 208.989 200.378 209 200.592 209H201.52C201.904 209 202.202 208.989 202.416 208.968C203.056 208.925 203.888 208.904 204.912 208.904C205.018 208.904 205.072 208.947 205.072 209.032C205.072 209.096 205.018 209.128 204.912 209.128C204.101 209.128 203.525 209.235 203.184 209.448C202.842 209.661 202.672 210.013 202.672 210.504C202.672 211.059 202.938 211.987 203.472 213.288L207.888 223.912C208.89 222.653 209.818 221.117 210.672 219.304C211.525 217.469 211.952 215.635 211.952 213.8C211.952 213.352 211.898 212.936 211.792 212.552C211.685 212.147 211.504 211.635 211.248 211.016C210.949 210.312 210.576 209.821 210.128 209.544C209.701 209.267 209.146 209.128 208.464 209.128C208.378 209.128 208.336 209.096 208.336 209.032C208.336 208.947 208.378 208.904 208.464 208.904L210.032 208.936C210.586 208.979 211.162 209 211.76 209H215.152H220.176L223.184 208.968C225.232 208.925 226.682 208.904 227.536 208.904ZM223.216 213.8C223.216 211.901 222.48 210.664 221.008 210.088C219.557 209.512 218.224 209.224 217.008 209.224H215.152C214.426 209.224 213.914 209.309 213.616 209.48C213.317 209.629 213.168 209.896 213.168 210.28C213.168 210.579 213.232 210.941 213.36 211.368C213.509 211.795 213.754 212.445 214.096 213.32L218.256 223.848C219.642 221.949 220.816 220.147 221.776 218.44C222.736 216.712 223.216 215.165 223.216 213.8ZM241.535 217.64C241.557 217.555 241.599 217.512 241.663 217.512C241.706 217.512 241.738 217.533 241.759 217.576C241.802 217.619 241.813 217.672 241.791 217.736C240.938 220.296 239.775 222.195 238.303 223.432C236.831 224.669 234.986 225.288 232.767 225.288C231.253 225.288 229.919 224.936 228.767 224.232C227.615 223.507 226.719 222.547 226.079 221.352C225.461 220.136 225.151 218.824 225.151 217.416C225.151 216.008 225.493 214.632 226.175 213.288C226.879 211.944 227.871 210.845 229.151 209.992C230.431 209.139 231.893 208.712 233.535 208.712C235.135 208.712 236.533 209.011 237.727 209.608C238.922 210.205 239.519 211.027 239.519 212.072C239.519 212.904 239.231 213.565 238.655 214.056C238.079 214.547 237.375 214.909 236.543 215.144C235.733 215.357 234.645 215.581 233.279 215.816C232.298 215.987 231.573 216.125 231.103 216.232C229.781 216.509 228.778 216.904 228.095 217.416C227.413 217.907 227.125 218.643 227.231 219.624C227.743 220.989 228.543 222.099 229.631 222.952C230.741 223.784 232.085 224.2 233.663 224.2C235.562 224.2 237.162 223.677 238.463 222.632C239.765 221.587 240.789 219.923 241.535 217.64ZM233.535 209C232.149 209 230.933 209.331 229.887 209.992C228.842 210.653 228.042 211.549 227.487 212.68C226.933 213.789 226.655 214.995 226.655 216.296C226.655 217.171 226.762 217.992 226.975 218.76C227.082 217.992 227.498 217.395 228.223 216.968C228.949 216.52 229.898 216.179 231.071 215.944C231.285 215.88 231.679 215.805 232.255 215.72C233.45 215.507 234.41 215.283 235.135 215.048C235.882 214.813 236.501 214.472 236.991 214.024C237.503 213.555 237.759 212.925 237.759 212.136C237.759 211.24 237.386 210.493 236.639 209.896C235.914 209.299 234.879 209 233.535 209ZM244.181 225C243.861 225 243.616 225.011 243.445 225.032C242.933 225.075 242.251 225.096 241.397 225.096C241.312 225.096 241.269 225.064 241.269 225C241.269 224.915 241.312 224.872 241.397 224.872C242.208 224.872 242.795 224.776 243.157 224.584C243.52 224.392 243.755 224.093 243.861 223.688C243.968 223.261 244.021 222.589 244.021 221.672V205.192C244.021 204.488 243.904 203.965 243.669 203.624C243.456 203.283 243.061 203.112 242.485 203.112C242.165 203.112 241.835 203.155 241.493 203.24C241.451 203.261 241.419 203.251 241.397 203.208C241.397 203.165 241.419 203.133 241.461 203.112C242.016 202.899 242.667 202.6 243.413 202.216C244.181 201.811 244.768 201.469 245.173 201.192C245.216 201.149 245.259 201.139 245.301 201.16C245.344 201.181 245.365 201.224 245.365 201.288V221.672C245.365 222.589 245.419 223.261 245.525 223.688C245.632 224.093 245.867 224.392 246.229 224.584C246.592 224.776 247.179 224.872 247.989 224.872C248.096 224.872 248.149 224.915 248.149 225C248.149 225.064 248.096 225.096 247.989 225.096C247.136 225.096 246.453 225.075 245.941 225.032C245.771 225.011 245.525 225 245.205 225H244.181ZM257.524 216.52C260.318 217.629 261.716 219.176 261.716 221.16C261.716 221.992 261.417 222.728 260.82 223.368C260.244 223.987 259.497 224.467 258.58 224.808C257.662 225.128 256.724 225.288 255.764 225.288C253.908 225.288 252.382 224.989 251.188 224.392C249.993 223.795 249.182 223.059 248.756 222.184C249.374 221.523 249.844 220.915 250.164 220.36C250.505 219.805 250.953 218.941 251.508 217.768C251.572 217.683 251.625 217.64 251.668 217.64C251.71 217.64 251.742 217.672 251.764 217.736C251.785 217.779 251.785 217.832 251.764 217.896C251.124 219.24 250.644 220.157 250.324 220.648C250.558 221.971 251.092 223.027 251.924 223.816C252.756 224.605 254.014 225 255.7 225C256.958 225 258.046 224.723 258.964 224.168C259.902 223.613 260.372 222.781 260.372 221.672C260.372 220.776 260.116 220.061 259.604 219.528C259.113 218.973 258.398 218.461 257.46 217.992C257.033 217.779 256.244 217.469 255.092 217.064L253.684 216.584C252.489 216.115 251.572 215.571 250.932 214.952C250.313 214.312 250.004 213.48 250.004 212.456C250.004 211.667 250.281 210.995 250.836 210.44C251.412 209.864 252.116 209.427 252.948 209.128C253.801 208.829 254.612 208.68 255.38 208.68C256.766 208.68 258.046 208.968 259.22 209.544C260.414 210.12 261.161 210.803 261.46 211.592C260.905 212.125 260.404 212.765 259.956 213.512C259.508 214.259 259.124 215.005 258.804 215.752L258.676 215.816C258.633 215.816 258.59 215.795 258.548 215.752C258.526 215.688 258.537 215.624 258.58 215.56C258.921 214.771 259.316 214.024 259.764 213.32L259.796 212.936C259.796 212.253 259.604 211.613 259.22 211.016C258.836 210.397 258.302 209.907 257.62 209.544C256.937 209.181 256.18 209 255.348 209C254.238 209 253.268 209.299 252.436 209.896C251.604 210.472 251.188 211.187 251.188 212.04C251.188 213.469 252.116 214.536 253.972 215.24C254.292 215.368 254.59 215.485 254.868 215.592C255.166 215.677 255.444 215.773 255.7 215.88C256.34 216.072 256.948 216.285 257.524 216.52Z" fill="white"/>
</g>
<defs>
<filter id="filter0_d_4_40" x="90.8401" y="111.048" width="178.395" height="98.3359" filterUnits="userSpaceOnUse" color-interpolation-filters="sRGB">
<feFlood flood-opacity="0" result="BackgroundImageFix"/>
<feColorMatrix in="SourceAlpha" type="matrix" values="0 0 0 0 0 0 0 0 0 0 0 0 0 0 0 0 0 0 127 0" result="hardAlpha"/>
<feOffset dy="4"/>
<feGaussianBlur stdDeviation="2"/>
<feComposite in2="hardAlpha" operator="out"/>
<feColorMatrix type="matrix" values="0 0 0 0 0 0 0 0 0 0 0 0 0 0 0 0 0 0 0.25 0"/>
<feBlend mode="normal" in2="BackgroundImageFix" result="effect1_dropShadow_4_40"/>
<feBlend mode="normal" in="SourceGraphic" in2="effect1_dropShadow_4_40" result="shape"/>
</filter>
<filter id="filter1_d_4_40" x="90.8401" y="111.048" width="178.395" height="98.3359" filterUnits="userSpaceOnUse" color-interpolation-filters="sRGB">
<feFlood flood-opacity="0" result="BackgroundImageFix"/>
<feColorMatrix in="SourceAlpha" type="matrix" values="0 0 0 0 0 0 0 0 0 0 0 0 0 0 0 0 0 0 127 0" result="hardAlpha"/>
<feOffset dy="4"/>
<feGaussianBlur stdDeviation="2"/>
<feComposite in2="hardAlpha" operator="out"/>
<feColorMatrix type="matrix" values="0 0 0 0 0 0 0 0 0 0 0 0 0 0 0 0 0 0 0.25 0"/>
<feBlend mode="normal" in2="BackgroundImageFix" result="effect1_dropShadow_4_40"/>
<feBlend mode="normal" in="SourceGraphic" in2="effect1_dropShadow_4_40" result="shape"/>
</filter>
<filter id="filter2_d_4_40" x="170.136" y="201.128" width="95.5798" height="40" filterUnits="userSpaceOnUse" color-interpolation-filters="sRGB">
<feFlood flood-opacity="0" result="BackgroundImageFix"/>
<feColorMatrix in="SourceAlpha" type="matrix" values="0 0 0 0 0 0 0 0 0 0 0 0 0 0 0 0 0 0 127 0" result="hardAlpha"/>
<feOffset dy="4"/>
<feGaussianBlur stdDeviation="2"/>
<feComposite in2="hardAlpha" operator="out"/>
<feColorMatrix type="matrix" values="0 0 0 0 0 0 0 0 0 0 0 0 0 0 0 0 0 0 0.25 0"/>
<feBlend mode="normal" in2="BackgroundImageFix" result="effect1_dropShadow_4_40"/>
<feBlend mode="normal" in="SourceGraphic" in2="effect1_dropShadow_4_40" result="shape"/>
</filter>
<linearGradient id="paint0_linear_4_40" x1="18" y1="18" x2="318.5" y2="348" gradientUnits="userSpaceOnUse">
<stop stop-color="#44242A"/>
<stop offset="1" stop-color="#44242A" stop-opacity="0.81"/>
</linearGradient>
</defs>
</svg>
