<svg width="180" height="146" viewBox="0 0 180 146" fill="none" xmlns="http://www.w3.org/2000/svg">
<g filter="url(#filter0_d_4_102)">
<path d="M4.84 28.096H11.56V63.904C12.648 60.96 14.664 58.176 17.608 55.552C20.552 52.928 23.88 51.616 27.592 51.616C40.584 51.616 47.08 59.232 47.08 74.464C47.08 91.744 38.696 100.384 21.928 100.384C17 100.384 11.304 99.584 4.84 97.984V28.096ZM27.496 52.384C23.528 52.384 19.944 54.112 16.744 57.568C13.544 60.96 11.816 64.032 11.56 66.784V97.408C15.464 98.88 18.888 99.616 21.832 99.616C34.184 99.616 40.36 91.2 40.36 74.368C40.36 59.712 36.072 52.384 27.496 52.384ZM73.627 100.384C66.907 100.384 61.435 98.464 57.211 94.624C52.987 90.784 50.875 84.864 50.875 76.864C50.875 68.864 53.051 62.656 57.403 58.24C61.819 53.824 67.387 51.616 74.107 51.616C80.891 51.616 86.395 53.536 90.619 57.376C94.843 61.216 96.955 67.136 96.955 75.136C96.955 83.136 94.747 89.344 90.331 93.76C85.979 98.176 80.411 100.384 73.627 100.384ZM74.299 52.384C69.435 52.384 65.403 54.56 62.203 58.912C59.003 63.2 57.403 69.216 57.403 76.96C57.403 84.64 58.875 90.336 61.819 94.048C64.763 97.76 68.667 99.616 73.531 99.616C78.395 99.616 82.427 97.472 85.627 93.184C88.827 88.832 90.427 82.816 90.427 75.136C90.427 67.392 88.955 61.664 86.011 57.952C83.067 54.24 79.163 52.384 74.299 52.384ZM117.215 56.128V54.112C114.335 55.264 111.711 57.6 109.343 61.12C106.975 64.576 105.727 67.84 105.599 70.912V100H98.8787V52H105.599V67.264C106.623 63.552 108.575 60.064 111.455 56.8C114.335 53.472 117.599 51.744 121.247 51.616H121.631C122.911 51.616 123.967 52.064 124.799 52.96C125.695 53.792 126.143 54.848 126.143 56.128C126.143 57.408 125.695 58.464 124.799 59.296C123.967 60.128 122.911 60.544 121.631 60.544C120.351 60.544 119.295 60.128 118.463 59.296C117.631 58.464 117.215 57.408 117.215 56.128ZM169.379 100C166.755 100 164.739 99.424 163.331 98.272C161.987 97.12 161.283 95.968 161.219 94.816L161.123 93.184V63.04C161.123 57.984 159.811 54.752 157.187 53.344C155.843 52.704 154.179 52.384 152.195 52.384C148.099 52.384 144.419 54.016 141.155 57.28C137.891 60.48 136.259 63.36 136.259 65.92V100H129.539V52H136.259V62.944C137.347 60.192 139.363 57.632 142.307 55.264C145.251 52.832 148.483 51.616 152.003 51.616C155.523 51.616 158.371 51.968 160.547 52.672C162.787 53.312 164.419 54.24 165.443 55.456C167.043 57.44 167.843 60 167.843 63.136V93.184C167.843 95.04 168.195 96.48 168.899 97.504C169.667 98.464 170.435 98.976 171.203 99.04L172.259 99.232H175.235V100H169.379Z" fill="#44242A"/>
<path d="M32.68 22.384V22H33.688V17.2H37.048V22H44.392V22.384H37.048V39.856C37.048 41.936 37.272 43.44 37.72 44.368C38.2 45.296 39.176 45.76 40.648 45.76C42.152 45.76 43.672 45.456 45.208 44.848L45.352 45.232C43.752 45.84 41.912 46.144 39.832 46.144C37.784 46.144 36.248 45.728 35.224 44.896C34.2 44.032 33.688 42.336 33.688 39.808V22.384H32.68ZM65.7381 46C64.4261 46 63.4181 45.712 62.7141 45.136C62.0421 44.56 61.6901 43.984 61.6581 43.408L61.6101 42.592V27.52C61.6101 24.992 60.9381 23.376 59.5941 22.672C58.9541 22.352 58.1381 22.192 57.1461 22.192C55.1621 22.192 53.3701 23.008 51.7701 24.64C50.2021 26.24 49.4181 27.68 49.4181 28.96V46H46.0581V10.048H49.4181V27.472C49.9301 26.096 50.9061 24.816 52.3461 23.632C53.7861 22.416 55.4021 21.808 57.1941 21.808C60.2981 21.808 62.3621 22.352 63.3861 23.44C64.4421 24.496 64.9701 25.872 64.9701 27.568V42.592C64.9701 43.52 65.1461 44.24 65.4981 44.752C65.8821 45.232 66.2501 45.488 66.6021 45.52L67.1781 45.616H68.6661V46H65.7381ZM72.6565 34.288C72.6565 38.256 73.3445 41.168 74.7205 43.024C76.1285 44.88 77.9685 45.808 80.2405 45.808C83.4405 45.808 86.2885 45.328 88.7845 44.368L88.9285 44.704C86.3685 45.696 83.4725 46.192 80.2405 46.192C77.0405 46.192 74.4325 45.232 72.4165 43.312C70.4005 41.392 69.3925 38.432 69.3925 34.432C69.3925 30.432 70.4485 27.328 72.5605 25.12C74.6725 22.912 77.3605 21.808 80.6245 21.808C83.2485 21.808 85.4565 22.592 87.2485 24.16C89.0405 25.728 89.9365 28.048 89.9365 31.12C89.9365 31.28 89.9365 31.44 89.9365 31.6H72.8005C72.7045 32.464 72.6565 33.36 72.6565 34.288ZM86.6725 31.216C86.6405 28.144 86.0485 25.872 84.8965 24.4C83.7445 22.928 82.2565 22.192 80.4325 22.192C78.6085 22.192 76.9765 22.992 75.5365 24.592C74.1285 26.192 73.2325 28.4 72.8485 31.216H86.6725Z" fill="#44242A"/>
</g>
<g filter="url(#filter1_d_4_102)">
<path d="M93.672 108.68C93.7573 108.68 93.8 108.712 93.8 108.776C93.8213 108.819 93.8107 108.861 93.768 108.904C92.5947 109.587 91.8267 110.44 91.464 111.464C91.1227 112.467 90.952 113.736 90.952 115.272V115.88L90.984 125.256C90.984 127.133 90.6213 128.659 89.896 129.832C89.1707 131.005 88.296 131.848 87.272 132.36C86.248 132.872 85.2773 133.128 84.36 133.128C84.2107 133.128 84.136 133.075 84.136 132.968C84.136 132.883 84.2 132.84 84.328 132.84C87.08 132.84 88.456 130.952 88.456 127.176V115.016C88.456 114.056 88.7013 113.107 89.192 112.168C89.704 111.208 90.568 110.323 91.784 109.512C90.5467 110.003 89.4053 110.6 88.36 111.304C87.3147 111.987 86.5573 112.595 86.088 113.128C86.0667 113.192 86.0133 113.224 85.928 113.224C85.864 113.224 85.8213 113.192 85.8 113.128C85.7787 113.064 85.8 113 85.864 112.936C86.5467 112.125 87.6347 111.304 89.128 110.472C90.6213 109.64 92.104 109.043 93.576 108.68H93.672ZM90.504 105.768C90.056 105.768 89.672 105.619 89.352 105.32C89.032 105 88.872 104.605 88.872 104.136C88.872 103.688 89.0213 103.304 89.32 102.984C89.64 102.664 90.0347 102.504 90.504 102.504C90.9733 102.504 91.368 102.664 91.688 102.984C92.008 103.283 92.168 103.667 92.168 104.136C92.168 104.605 92.0187 105 91.72 105.32C91.4213 105.619 91.016 105.768 90.504 105.768ZM110.369 117.448C110.433 117.341 110.497 117.309 110.561 117.352C110.646 117.373 110.667 117.437 110.625 117.544C109.75 119.955 108.491 121.853 106.849 123.24C105.227 124.627 103.297 125.32 101.057 125.32C99.5205 125.32 98.1338 124.979 96.8965 124.296C95.6805 123.592 94.7205 122.643 94.0165 121.448C93.3125 120.253 92.9605 118.941 92.9605 117.512C92.9605 115.891 93.2912 114.397 93.9525 113.032C94.6138 111.667 95.5738 110.579 96.8325 109.768C98.0912 108.957 99.5952 108.552 101.345 108.552C102.475 108.552 103.521 108.701 104.481 109C105.462 109.299 106.241 109.715 106.817 110.248C107.414 110.781 107.713 111.389 107.713 112.072C107.713 112.947 107.414 113.64 106.817 114.152C106.241 114.643 105.526 115.005 104.673 115.24C103.819 115.475 102.699 115.709 101.313 115.944C100.289 116.115 99.5418 116.253 99.0725 116.36C98.0272 116.616 97.2378 116.947 96.7045 117.352C96.1925 117.757 95.9792 118.333 96.0645 119.08C96.5552 120.509 97.3765 121.683 98.5285 122.6C99.6805 123.517 101.153 123.976 102.945 123.976C104.63 123.976 106.113 123.379 107.393 122.184C108.673 120.968 109.665 119.389 110.369 117.448ZM101.345 108.84C100.257 108.84 99.2752 109.117 98.4005 109.672C97.5258 110.205 96.8325 111.016 96.3205 112.104C95.8085 113.192 95.5525 114.515 95.5525 116.072C95.5525 116.797 95.6485 117.544 95.8405 118.312C95.9472 117.715 96.2778 117.256 96.8325 116.936C97.3872 116.595 98.1232 116.307 99.0405 116.072L100.193 115.816C101.238 115.603 102.081 115.389 102.721 115.176C103.382 114.941 103.926 114.589 104.353 114.12C104.801 113.651 105.025 113 105.025 112.168C105.025 111.208 104.737 110.419 104.161 109.8C103.585 109.16 102.646 108.84 101.345 108.84ZM139.381 108.84C139.488 108.84 139.541 108.883 139.541 108.968C139.541 109.032 139.488 109.064 139.381 109.064C137.76 109.064 136.352 109.085 135.157 109.128C133.984 109.171 133.333 109.299 133.205 109.512C133.141 109.597 133.141 109.693 133.205 109.8C133.29 109.885 133.44 110.024 133.653 110.216C134.144 110.664 134.549 111.165 134.869 111.72C135.21 112.253 135.381 112.968 135.381 113.864C135.381 114.781 135.157 115.763 134.709 116.808C134.282 117.853 133.77 118.856 133.173 119.816C132.576 120.776 131.754 122.024 130.709 123.56L129.589 125.256H128.725L122.645 110.6H122.453C122.645 111.155 122.794 111.688 122.901 112.2C123.029 112.691 123.093 113.267 123.093 113.928C123.093 115.507 122.762 117.149 122.101 118.856C121.44 120.563 120.576 122.173 119.509 123.688L118.357 125.256H117.461L112.693 113.768C112.16 112.488 111.701 111.528 111.317 110.888C110.954 110.248 110.57 109.789 110.165 109.512C109.76 109.235 109.258 109.085 108.661 109.064C108.576 109.064 108.533 109.032 108.533 108.968C108.533 108.883 108.576 108.84 108.661 108.84C109.322 108.84 109.909 108.861 110.421 108.904C110.57 108.925 110.784 108.936 111.061 108.936H113.333C113.717 108.936 114.016 108.925 114.229 108.904C114.912 108.861 115.754 108.84 116.757 108.84C116.864 108.84 116.917 108.883 116.917 108.968C116.917 109.032 116.864 109.064 116.757 109.064C115.968 109.085 115.392 109.213 115.029 109.448C114.666 109.661 114.485 110.045 114.485 110.6C114.485 111.219 114.784 112.275 115.381 113.768L119.349 123.336C120.373 121.779 121.205 120.232 121.845 118.696C122.485 117.16 122.805 115.56 122.805 113.896C122.805 113.341 122.762 112.872 122.677 112.488C122.613 112.083 122.474 111.592 122.261 111.016C122.005 110.291 121.664 109.789 121.237 109.512C120.81 109.213 120.256 109.064 119.573 109.064C119.488 109.064 119.445 109.032 119.445 108.968C119.445 108.883 119.488 108.84 119.573 108.84L121.493 108.872C122.304 108.915 123.008 108.936 123.605 108.936H126.261H132.021L135.029 108.904C137.077 108.861 138.528 108.84 139.381 108.84ZM135.093 113.864C135.093 112.499 134.677 111.475 133.845 110.792C133.013 110.088 132.138 109.64 131.221 109.448C130.304 109.256 129.546 109.16 128.949 109.16H127.445C126.357 109.16 125.813 109.672 125.813 110.696C125.813 111.379 126.026 112.253 126.453 113.32L130.581 123.24C131.52 121.896 132.277 120.776 132.853 119.88C133.429 118.984 133.941 117.992 134.389 116.904C134.858 115.816 135.093 114.803 135.093 113.864ZM154.215 117.448C154.279 117.341 154.343 117.309 154.407 117.352C154.492 117.373 154.513 117.437 154.471 117.544C153.596 119.955 152.337 121.853 150.695 123.24C149.073 124.627 147.143 125.32 144.903 125.32C143.367 125.32 141.98 124.979 140.743 124.296C139.527 123.592 138.567 122.643 137.863 121.448C137.159 120.253 136.807 118.941 136.807 117.512C136.807 115.891 137.137 114.397 137.799 113.032C138.46 111.667 139.42 110.579 140.679 109.768C141.937 108.957 143.441 108.552 145.191 108.552C146.321 108.552 147.367 108.701 148.327 109C149.308 109.299 150.087 109.715 150.663 110.248C151.26 110.781 151.559 111.389 151.559 112.072C151.559 112.947 151.26 113.64 150.663 114.152C150.087 114.643 149.372 115.005 148.519 115.24C147.665 115.475 146.545 115.709 145.159 115.944C144.135 116.115 143.388 116.253 142.919 116.36C141.873 116.616 141.084 116.947 140.551 117.352C140.039 117.757 139.825 118.333 139.911 119.08C140.401 120.509 141.223 121.683 142.375 122.6C143.527 123.517 144.999 123.976 146.791 123.976C148.476 123.976 149.959 123.379 151.239 122.184C152.519 120.968 153.511 119.389 154.215 117.448ZM145.191 108.84C144.103 108.84 143.121 109.117 142.247 109.672C141.372 110.205 140.679 111.016 140.167 112.104C139.655 113.192 139.399 114.515 139.399 116.072C139.399 116.797 139.495 117.544 139.687 118.312C139.793 117.715 140.124 117.256 140.679 116.936C141.233 116.595 141.969 116.307 142.887 116.072L144.039 115.816C145.084 115.603 145.927 115.389 146.567 115.176C147.228 114.941 147.772 114.589 148.199 114.12C148.647 113.651 148.871 113 148.871 112.168C148.871 111.208 148.583 110.419 148.007 109.8C147.431 109.16 146.492 108.84 145.191 108.84ZM156.868 125C156.548 125 156.303 125.011 156.132 125.032C155.577 125.075 154.937 125.096 154.212 125.096C154.127 125.096 154.084 125.064 154.084 125C154.084 124.915 154.127 124.872 154.212 124.872C155.001 124.872 155.567 124.765 155.908 124.552C156.271 124.339 156.495 124.019 156.58 123.592C156.665 123.144 156.708 122.44 156.708 121.48V105.544C156.708 104.605 156.537 103.912 156.196 103.464C155.855 102.995 155.215 102.792 154.276 102.856C154.191 102.877 154.148 102.856 154.148 102.792C154.148 102.728 154.191 102.685 154.276 102.664C154.937 102.472 155.748 102.195 156.708 101.832C157.689 101.469 158.457 101.139 159.012 100.84C159.055 100.797 159.097 100.797 159.14 100.84C159.183 100.861 159.204 100.904 159.204 100.968V121.48C159.204 122.44 159.247 123.144 159.332 123.592C159.417 124.019 159.631 124.339 159.972 124.552C160.335 124.765 160.911 124.872 161.7 124.872C161.807 124.872 161.86 124.915 161.86 125C161.86 125.064 161.807 125.096 161.7 125.096C160.975 125.096 160.335 125.075 159.78 125.032C159.609 125.011 159.364 125 159.044 125H156.868ZM171.109 115.976C172.645 116.488 173.808 117.128 174.597 117.896C175.408 118.643 175.813 119.613 175.813 120.808C175.813 122.173 175.173 123.261 173.893 124.072C172.635 124.883 170.971 125.288 168.901 125.288C168.197 125.288 167.397 125.149 166.501 124.872C165.605 124.595 164.784 124.232 164.037 123.784C163.291 123.315 162.779 122.824 162.501 122.312C163.483 121.011 164.101 120.157 164.357 119.752C164.635 119.325 164.965 118.685 165.349 117.832C165.413 117.704 165.488 117.64 165.573 117.64C165.616 117.64 165.648 117.672 165.669 117.736C165.691 117.779 165.691 117.843 165.669 117.928C165.093 119.08 164.699 119.816 164.485 120.136C164.677 121.608 165.147 122.792 165.893 123.688C166.661 124.563 167.664 125 168.901 125C169.648 125.064 170.373 124.979 171.077 124.744C171.803 124.509 172.389 124.157 172.837 123.688C173.307 123.219 173.541 122.675 173.541 122.056C173.541 121.352 173.307 120.659 172.837 119.976C172.368 119.293 171.707 118.803 170.853 118.504L169.349 117.992C168.219 117.629 167.323 117.288 166.661 116.968C165.595 116.477 164.795 115.88 164.261 115.176C163.728 114.451 163.461 113.576 163.461 112.552C163.461 111.763 163.749 111.069 164.325 110.472C164.923 109.853 165.648 109.384 166.501 109.064C167.376 108.723 168.197 108.552 168.965 108.552C170.139 108.552 171.333 108.787 172.549 109.256C173.787 109.704 174.811 110.365 175.621 111.24C174.427 112.499 173.467 113.907 172.741 115.464C172.72 115.549 172.667 115.592 172.581 115.592C172.539 115.592 172.507 115.571 172.485 115.528C172.464 115.464 172.464 115.4 172.485 115.336C172.656 114.931 172.912 114.429 173.253 113.832C173.296 113.405 173.317 113.096 173.317 112.904C173.317 111.581 172.901 110.579 172.069 109.896C171.237 109.192 170.181 108.84 168.901 108.84C167.941 108.84 167.152 109.117 166.533 109.672C165.936 110.205 165.637 110.909 165.637 111.784C165.637 112.381 165.787 112.915 166.085 113.384C166.384 113.853 166.907 114.269 167.653 114.632C168.4 114.995 169.552 115.443 171.109 115.976Z" fill="#44242A"/>
</g>
<defs>
<filter id="filter0_d_4_102" x="0.840088" y="10.0481" width="178.395" height="98.3359" filterUnits="userSpaceOnUse" color-interpolation-filters="sRGB">
<feFlood flood-opacity="0" result="BackgroundImageFix"/>
<feColorMatrix in="SourceAlpha" type="matrix" values="0 0 0 0 0 0 0 0 0 0 0 0 0 0 0 0 0 0 127 0" result="hardAlpha"/>
<feOffset dy="4"/>
<feGaussianBlur stdDeviation="2"/>
<feComposite in2="hardAlpha" operator="out"/>
<feColorMatrix type="matrix" values="0 0 0 0 0 0 0 0 0 0 0 0 0 0 0 0 0 0 0.25 0"/>
<feBlend mode="normal" in2="BackgroundImageFix" result="effect1_dropShadow_4_102"/>
<feBlend mode="normal" in="SourceGraphic" in2="effect1_dropShadow_4_102" result="shape"/>
</filter>
<filter id="filter1_d_4_102" x="80.136" y="100.776" width="99.6772" height="40.3521" filterUnits="userSpaceOnUse" color-interpolation-filters="sRGB">
<feFlood flood-opacity="0" result="BackgroundImageFix"/>
<feColorMatrix in="SourceAlpha" type="matrix" values="0 0 0 0 0 0 0 0 0 0 0 0 0 0 0 0 0 0 127 0" result="hardAlpha"/>
<feOffset dy="4"/>
<feGaussianBlur stdDeviation="2"/>
<feComposite in2="hardAlpha" operator="out"/>
<feColorMatrix type="matrix" values="0 0 0 0 0 0 0 0 0 0 0 0 0 0 0 0 0 0 0.25 0"/>
<feBlend mode="normal" in2="BackgroundImageFix" result="effect1_dropShadow_4_102"/>
<feBlend mode="normal" in="SourceGraphic" in2="effect1_dropShadow_4_102" result="shape"/>
</filter>
</defs>
</svg>
